<?xml version="1.0" standalone="no"?>
<!DOCTYPE svg PUBLIC "-//W3C//DTD SVG 20010904//EN"
 "http://www.w3.org/TR/2001/REC-SVG-20010904/DTD/svg10.dtd">
<svg version="1.0" xmlns="http://www.w3.org/2000/svg"
 width="1080.000000pt" height="1080.000000pt" viewBox="0 0 1080.000000 1080.000000"
 preserveAspectRatio="xMidYMid meet">

<g transform="translate(0.000000,1080.000000) scale(0.100000,-0.100000)"
fill="#000000" stroke="none">
<path d="M4767 8305 c-98 -24 -181 -46 -184 -49 -6 -6 113 -526 123 -535 5 -5
114 15 121 23 2 2 -6 42 -18 89 -12 48 -19 92 -16 100 2 7 40 21 83 31 44 10
96 22 118 28 l38 9 -6 42 c-4 23 -11 46 -15 50 -4 4 -63 -5 -129 -21 l-122
-29 -9 36 c-6 20 -13 52 -16 73 l-7 36 139 32 c76 18 139 34 141 35 2 1 -2 23
-9 49 -9 37 -15 46 -33 45 -11 0 -101 -20 -199 -44z"/>
<path d="M5327 8246 c-21 -8 -47 -22 -58 -32 -18 -16 -19 -16 -19 4 0 20 -5
22 -62 22 l-61 0 7 -122 c3 -68 9 -165 13 -216 l6 -93 61 3 c58 3 61 4 59 28
0 14 -3 74 -4 133 l-4 109 33 29 c23 20 43 29 67 29 38 0 41 7 29 83 -7 41
-12 42 -67 23z"/>
<path d="M5585 8224 c-22 -8 -57 -31 -78 -52 -82 -80 -85 -211 -5 -298 54 -58
107 -77 202 -72 63 3 81 8 117 33 117 82 125 266 15 350 -68 52 -172 68 -251
39z m140 -98 c58 -25 82 -104 50 -166 -21 -40 -53 -60 -98 -60 -54 0 -107 52
-107 104 0 57 25 105 62 121 42 18 51 18 93 1z"/>
<path d="M6037 8128 c-81 -232 -117 -344 -114 -353 5 -10 105 -50 111 -44 2 2
20 55 41 118 22 67 48 124 61 138 28 28 88 31 122 7 45 -31 45 -55 2 -188 -22
-67 -40 -127 -40 -132 0 -13 102 -46 111 -36 10 11 79 211 90 259 13 60 -4
119 -46 158 -50 48 -139 68 -199 45 -25 -9 -26 -8 -20 15 5 21 1 27 -22 36
-71 27 -80 25 -97 -23z"/>
<path d="M6631 7999 c-17 -30 -27 -39 -40 -34 -41 18 -47 16 -68 -23 l-22 -38
29 -17 28 -17 -50 -91 c-82 -147 -74 -215 31 -272 61 -34 96 -35 105 -4 13 48
7 63 -28 75 -52 19 -53 41 -5 130 60 110 54 106 106 76 24 -15 45 -25 47 -23
1 2 12 21 24 42 l22 38 -31 17 c-64 36 -63 34 -40 80 11 23 21 43 21 46 0 6
-87 56 -97 56 -5 0 -20 -18 -32 -41z"/>
<path d="M4026 7860 c-20 -22 -36 -49 -36 -60 0 -24 -16 -26 -28 -3 -9 15 -15
13 -60 -16 l-51 -32 116 -177 c64 -97 118 -179 119 -180 2 -3 68 38 102 63 2
2 -26 49 -62 106 -81 127 -86 162 -30 215 l36 34 -29 45 c-15 25 -31 45 -34
45 -4 0 -23 -18 -43 -40z"/>
<path d="M4315 7695 c-50 -49 -20 -129 48 -129 49 0 77 27 77 75 0 70 -77 103
-125 54z"/>
<path d="M6869 7706 c-80 -28 -139 -97 -154 -177 -22 -119 102 -266 232 -277
50 -4 55 -3 50 12 -4 10 -7 33 -7 52 0 30 -3 34 -25 34 -65 0 -135 68 -135
131 0 21 4 39 9 39 5 0 62 -43 126 -95 65 -52 121 -95 126 -95 13 0 55 62 68
99 17 51 13 91 -13 147 -29 62 -84 110 -150 129 -60 18 -80 18 -127 1z m134
-107 c35 -18 57 -51 57 -89 0 -63 -10 -62 -93 7 -64 53 -76 67 -66 79 14 17
72 18 102 3z"/>
<path d="M3690 7599 c-76 -23 -148 -98 -169 -176 -32 -117 57 -247 181 -268
23 -4 59 0 94 10 78 23 165 108 183 179 6 27 11 50 9 51 -2 1 -24 5 -50 9 -46
7 -46 7 -53 -24 -9 -43 -60 -98 -100 -109 -32 -9 -82 -5 -89 8 -3 4 49 56 115
116 l118 110 -31 32 c-56 57 -139 82 -208 62z m84 -105 c9 -3 16 -10 16 -14 0
-4 -34 -38 -76 -75 -82 -74 -94 -74 -94 -6 0 47 55 101 103 101 20 0 42 -3 51
-6z"/>
<path d="M7180 7305 c-85 -69 -159 -131 -164 -138 -6 -10 1 -27 24 -56 18 -22
37 -41 40 -41 4 0 50 34 101 75 54 43 108 77 125 81 57 10 113 -36 114 -92 0
-37 -19 -58 -137 -152 l-82 -65 19 -26 c11 -14 28 -37 38 -50 l19 -24 111 89
c124 101 152 135 159 197 9 75 -65 179 -138 194 -33 6 -35 11 -12 28 15 11 13
17 -21 59 -21 25 -39 46 -40 46 0 0 -71 -56 -156 -125z"/>
<path d="M3345 7224 c-78 -29 -135 -106 -135 -185 0 -33 -3 -40 -12 -31 -20
20 -33 14 -66 -33 l-31 -44 239 -166 c131 -91 240 -165 243 -165 13 0 69 102
60 108 -49 31 -143 98 -143 102 0 3 18 13 39 23 44 20 84 74 101 137 27 102
-48 221 -161 254 -63 19 -82 19 -134 0z m108 -125 c95 -49 101 -161 11 -204
-86 -40 -199 61 -164 146 25 60 96 87 153 58z"/>
<path d="M7514 6907 c-135 -51 -190 -178 -130 -301 17 -35 39 -63 62 -77 31
-19 33 -23 18 -33 -15 -11 -14 -17 10 -64 l26 -51 257 125 c142 69 262 129
266 133 8 8 -37 111 -48 111 -3 0 -45 -20 -94 -45 l-89 -44 5 38 c15 110 -90
221 -207 220 -25 0 -59 -6 -76 -12z m131 -123 c33 -16 65 -65 65 -101 0 -77
-124 -142 -188 -97 -75 52 -64 156 21 195 51 23 60 23 102 3z"/>
<path d="M3082 6747 c-158 -60 -206 -285 -85 -399 145 -138 376 -20 377 192 0
90 -40 157 -118 197 -39 20 -133 26 -174 10z m105 -118 c66 -25 98 -90 72
-150 -14 -35 -62 -69 -97 -69 -58 0 -132 65 -132 115 0 35 34 88 64 101 38 16
57 17 93 3z"/>
<path d="M2672 6283 c-22 -87 -23 -82 16 -92 133 -36 536 -130 539 -127 3 2
10 29 17 60 12 49 12 56 -3 60 -9 3 -131 32 -271 66 -140 34 -263 63 -272 66
-13 4 -19 -4 -26 -33z"/>
<path d="M7830 6159 c-124 -16 -230 -31 -236 -33 -15 -6 21 -283 47 -350 51
-138 194 -205 344 -162 43 13 69 29 104 64 82 82 96 170 66 392 -8 58 -15 108
-15 113 0 12 -73 6 -310 -24z m220 -116 c0 -5 5 -39 10 -77 13 -85 0 -139 -43
-184 -74 -77 -212 -65 -267 23 -22 36 -50 188 -37 201 6 7 250 41 305 43 17 0
32 -2 32 -6z"/>
<path d="M2930 6029 c-107 -18 -173 -103 -173 -224 -1 -222 287 -308 403 -120
32 51 47 153 32 211 -7 25 -19 56 -28 69 -17 26 -27 24 -71 -13 -21 -18 -21
-20 -6 -63 20 -55 12 -107 -23 -149 -14 -16 -35 -30 -45 -30 -17 0 -19 5 -15
33 3 17 8 66 11 107 3 41 8 98 11 126 l6 52 -33 3 c-19 3 -50 2 -69 -2z m16
-136 c-2 -16 -8 -63 -11 -105 -4 -43 -11 -78 -17 -78 -5 0 -23 13 -39 29 -47
48 -36 135 22 167 39 21 51 18 45 -13z"/>
<path d="M2745 5494 c4 -32 8 -60 10 -62 1 -1 62 -20 136 -42 74 -22 141 -43
149 -46 9 -3 -36 -32 -115 -75 -71 -38 -133 -73 -138 -78 -10 -10 2 -121 13
-121 9 0 379 205 391 217 5 5 6 36 3 70 l-7 60 -211 63 c-116 35 -217 65 -224
68 -11 4 -12 -7 -7 -54z"/>
<path d="M7756 5536 c-89 -33 -146 -127 -146 -239 0 -65 18 -129 42 -143 5 -3
25 5 44 18 27 18 33 28 28 43 -14 42 -16 117 -4 146 14 32 45 59 70 59 17 0
14 -44 -15 -274 l-6 -48 74 3 c97 5 144 34 182 113 24 48 27 65 23 125 -3 58
-9 78 -34 113 -55 79 -170 116 -258 84z m158 -131 c56 -37 58 -124 5 -169 -53
-45 -63 -37 -55 47 8 85 17 137 22 137 3 0 15 -7 28 -15z"/>
<path d="M3140 5050 l-21 -41 29 -29 c17 -16 34 -49 41 -75 10 -40 9 -52 -6
-83 -10 -20 -23 -38 -30 -40 -8 -2 -29 51 -60 148 l-47 152 -31 -6 c-46 -9
-107 -57 -134 -106 -84 -151 53 -359 222 -337 67 9 129 48 162 102 41 66 43
163 4 246 -23 48 -80 109 -102 109 -4 0 -16 -18 -27 -40z m-99 -197 c16 -49
29 -91 29 -95 0 -18 -51 -6 -79 18 -32 27 -48 77 -36 113 7 24 46 64 53 56 3
-3 18 -44 33 -92z"/>
<path d="M7760 4999 c-107 -11 -200 -21 -205 -23 -6 -2 -19 -30 -29 -61 -15
-48 -16 -60 -4 -70 41 -40 332 -285 338 -285 4 0 12 18 19 41 7 23 14 46 17
53 3 7 -48 56 -111 111 -79 67 -112 101 -103 105 7 4 63 10 123 14 171 11 171
11 184 61 6 23 13 50 17 59 8 20 13 20 -246 -5z"/>
<path d="M7451 4614 c-82 -41 -151 -153 -151 -243 0 -46 13 -55 60 -45 41 9
42 10 44 50 4 77 66 148 124 142 l31 -3 -42 -75 c-24 -41 -59 -105 -80 -142
l-37 -68 38 -19 c155 -77 324 32 324 209 0 93 -44 159 -132 199 -62 28 -115
26 -179 -5z m212 -192 c11 -57 -47 -132 -103 -132 -15 0 -29 3 -32 6 -3 3 17
46 44 95 47 85 51 89 68 74 10 -9 20 -28 23 -43z"/>
<path d="M3178 4597 c-91 -26 -171 -100 -199 -184 -17 -52 -7 -159 21 -213 27
-55 150 -260 155 -260 5 0 458 271 469 281 10 9 -122 231 -172 289 -63 75
-182 112 -274 87z m145 -131 c18 -7 49 -32 68 -54 43 -50 87 -134 74 -138 -5
-2 -70 -40 -144 -85 -74 -44 -139 -78 -145 -76 -6 3 -29 38 -50 78 -66 122
-50 203 49 260 55 32 98 36 148 15z"/>
<path d="M7172 4238 c-17 -23 -32 -45 -32 -48 0 -4 104 -87 232 -185 l232
-178 29 34 c55 66 67 50 -181 240 -124 96 -231 175 -237 177 -6 1 -25 -16 -43
-40z"/>
<path d="M7031 4048 c-51 -17 -137 -101 -157 -153 -51 -136 41 -283 186 -293
74 -5 117 9 173 59 65 57 90 114 85 193 -5 75 -36 131 -97 172 -46 30 -135 40
-190 22z m131 -135 c26 -23 48 -66 48 -93 0 -54 -57 -110 -112 -110 -30 0 -83
33 -103 64 -10 14 -17 42 -17 62 0 93 114 141 184 77z"/>
<path d="M3758 3959 c-54 -16 -121 -79 -148 -141 -51 -118 16 -250 143 -282
l45 -11 -64 -75 -65 -75 48 -42 c26 -24 50 -39 53 -35 184 216 370 443 369
449 0 4 -18 23 -41 41 -38 30 -42 31 -58 17 -16 -15 -18 -13 -24 18 -7 38 -60
98 -106 122 -39 20 -106 26 -152 14z m154 -145 c77 -75 -14 -228 -116 -194
-63 21 -95 76 -76 134 10 32 51 78 80 89 29 12 83 -3 112 -29z"/>
<path d="M6613 3906 l-52 -32 49 -83 c28 -45 50 -84 50 -86 0 -2 -8 -1 -19 2
-26 7 -87 -12 -126 -39 -43 -29 -82 -89 -90 -139 -14 -84 45 -198 126 -239 49
-25 130 -26 184 -1 45 20 105 82 105 109 1 15 2 15 15 -2 14 -19 16 -19 48 -1
78 41 84 18 -79 287 -81 134 -150 246 -153 249 -3 4 -29 -8 -58 -25z m119
-323 c31 -30 49 -80 41 -115 -9 -35 -53 -77 -89 -84 -86 -16 -165 99 -123 177
5 11 25 29 42 40 41 26 90 19 129 -18z"/>
<path d="M4175 3660 c-3 -5 -1 -28 5 -50 10 -38 12 -40 51 -40 46 0 72 -11
111 -48 25 -23 48 -86 35 -98 -2 -3 -69 29 -147 71 -78 41 -143 75 -145 75 -1
0 -13 -23 -25 -52 -55 -128 16 -261 160 -299 100 -26 200 20 249 115 62 121 9
246 -134 312 -52 25 -148 33 -160 14z m78 -259 l88 -48 -28 -23 c-61 -48 -163
5 -163 85 0 19 3 35 8 35 4 -1 47 -23 95 -49z"/>
<path d="M6135 3496 c-62 -19 -100 -42 -129 -76 -35 -42 -33 -52 13 -78 l39
-22 16 25 c33 50 126 74 180 46 49 -27 38 -36 -111 -87 -80 -27 -147 -55 -150
-62 -8 -19 18 -73 55 -115 75 -82 214 -83 311 -1 48 40 71 93 71 161 -1 161
-139 258 -295 209z m185 -230 c0 -51 -57 -106 -110 -106 -27 0 -90 34 -90 48
0 10 154 70 183 71 9 1 17 -5 17 -13z"/>
<path d="M4564 3207 c-96 -170 -138 -254 -130 -259 7 -4 34 -10 62 -13 l49 -6
100 178 c79 141 101 173 104 153 2 -14 13 -106 25 -205 l21 -180 54 -12 c30
-6 58 -10 62 -8 3 3 50 82 105 176 83 145 99 168 104 148 4 -13 15 -102 25
-197 21 -194 17 -186 104 -198 51 -7 52 -6 47 17 -3 13 -20 143 -37 289 -17
146 -32 266 -33 267 -1 1 -32 9 -69 16 l-66 14 -98 -171 -98 -171 -8 50 c-4
28 -15 115 -25 195 l-17 145 -50 11 c-92 22 -77 37 -231 -239z"/>
<path d="M5793 3403 c-18 -2 -33 -7 -33 -11 0 -4 9 -57 19 -117 11 -61 17
-123 14 -138 -6 -33 -56 -77 -87 -77 -13 0 -25 -2 -28 -5 -5 -5 10 -106 17
-113 7 -8 91 37 110 58 l20 22 6 -24 c6 -24 14 -25 87 -13 22 4 32 11 31 23 0
9 -15 103 -32 207 l-33 190 -29 1 c-17 1 -45 -1 -62 -3z"/>
<path d="M5492 3370 c-28 -12 -45 -54 -37 -92 7 -28 47 -58 80 -58 24 0 75 55
75 80 0 27 -52 80 -77 79 -10 0 -28 -4 -41 -9z"/>
</g>
</svg>
