<?xml version="1.0" standalone="no"?>
<!DOCTYPE svg PUBLIC "-//W3C//DTD SVG 20010904//EN"
 "http://www.w3.org/TR/2001/REC-SVG-20010904/DTD/svg10.dtd">
<svg version="1.0" xmlns="http://www.w3.org/2000/svg"
 width="810.000000pt" height="810.000000pt" viewBox="0 0 810.000000 810.000000"
 preserveAspectRatio="xMidYMid meet">

<g transform="translate(0.000000,810.000000) scale(0.100000,-0.100000)"
fill="#000000" stroke="none">
<path d="M3957 7428 c-4 -62 -7 -220 -7 -350 l0 -238 44 0 45 0 5 43 c3 23 8
125 11 226 6 193 14 233 58 279 30 33 91 61 149 68 42 6 48 10 48 29 0 13 3
31 6 40 6 14 -4 15 -86 13 -50 -1 -83 -5 -73 -9 17 -6 16 -7 -3 -13 -25 -8
-77 -53 -92 -81 -8 -15 -9 -6 -5 43 l6 62 -50 0 -50 0 -6 -112z"/>
<path d="M3370 7485 c-19 -7 -45 -14 -57 -14 -13 -1 -23 -5 -23 -11 0 -5 -7
-10 -15 -10 -17 0 -35 -13 -63 -43 -54 -58 -72 -82 -72 -95 0 -8 -8 -21 -17
-28 -16 -11 -18 -30 -18 -137 0 -89 4 -128 13 -140 8 -9 10 -22 6 -28 -4 -7
-3 -9 2 -6 6 3 15 -7 22 -23 18 -39 92 -114 130 -129 18 -7 29 -17 26 -22 -3
-5 1 -6 9 -3 8 3 31 -2 51 -10 41 -17 126 -16 196 3 56 15 150 61 150 74 0 5
7 6 16 3 8 -3 13 -2 10 2 -3 5 6 20 20 35 29 31 30 48 6 70 -27 25 -39 21 -83
-24 -21 -22 -43 -38 -48 -35 -5 3 -11 -1 -15 -9 -3 -8 -13 -15 -23 -15 -10 0
-27 -7 -37 -15 -23 -17 -161 -22 -151 -5 3 5 0 7 -8 4 -23 -8 -98 38 -138 86
-35 42 -62 104 -43 98 5 -1 18 1 29 5 11 4 49 11 85 17 79 13 122 21 270 53
63 13 131 27 150 31 35 6 35 7 32 46 -2 22 -8 43 -13 46 -5 3 -9 12 -9 20 0 8
-11 32 -24 53 -14 21 -23 42 -20 45 2 3 1 4 -2 1 -4 -2 -18 8 -30 23 -13 15
-24 23 -24 17 0 -5 -7 1 -16 13 -8 12 -22 22 -30 22 -8 0 -14 4 -14 8 0 12
-84 33 -145 38 -28 2 -65 -3 -85 -11z m202 -113 c55 -38 96 -90 100 -128 3
-28 1 -29 -47 -36 -49 -7 -118 -19 -220 -37 -27 -5 -68 -14 -90 -20 -22 -6
-53 -10 -70 -10 l-30 1 30 8 30 8 -28 1 c-16 1 -30 -5 -33 -14 -4 -8 -11 -15
-16 -15 -16 0 1 109 23 151 27 53 76 91 159 123 8 3 45 4 81 2 54 -3 74 -9
111 -34z"/>
<path d="M5553 7458 c-36 -56 -34 -60 27 -91 35 -18 82 -45 178 -101 45 -27
49 -32 38 -50 -6 -12 -13 -23 -16 -26 -12 -12 -30 -51 -30 -65 0 -8 -4 -15
-10 -15 -5 0 -12 -11 -16 -25 -3 -14 -10 -25 -15 -25 -8 0 -24 -26 -56 -92
-10 -21 -21 -38 -25 -38 -5 0 -8 -9 -8 -20 0 -11 -4 -20 -8 -20 -5 0 -18 -19
-31 -42 -12 -24 -31 -56 -41 -73 -11 -16 -23 -37 -27 -45 -3 -8 -9 -17 -12
-20 -3 -3 -19 -32 -36 -65 -16 -33 -33 -61 -37 -63 -5 -2 -8 -9 -8 -17 0 -7
-7 -18 -15 -25 -25 -21 -17 -48 23 -73 l37 -24 24 41 c82 143 116 194 124 189
6 -3 7 -1 3 6 -6 9 83 181 104 201 3 3 14 21 24 40 10 19 28 52 39 72 11 20
25 34 30 31 6 -3 7 -1 4 4 -6 10 37 100 53 113 4 3 9 13 13 23 8 20 35 23 43
4 3 -8 10 -14 17 -14 7 0 39 -16 70 -36 32 -20 61 -37 65 -37 4 0 24 -11 44
-25 48 -32 60 -32 82 5 14 25 15 34 6 45 -7 8 -19 15 -26 15 -8 0 -14 5 -14
10 0 6 -6 10 -12 10 -21 0 -99 56 -91 65 5 4 3 5 -4 2 -11 -7 -43 3 -73 23 -8
5 -50 30 -92 56 -43 25 -78 50 -78 55 0 6 -4 8 -10 4 -5 -3 -26 5 -47 18 -21
13 -45 27 -53 30 -8 4 -28 16 -45 27 -16 11 -38 23 -47 26 -10 4 -18 10 -18
15 0 14 -38 11 -47 -3z"/>
<path d="M2575 7223 c-22 -9 -42 -19 -45 -22 -13 -15 -52 -31 -61 -26 -5 4 -8
1 -7 -7 2 -7 -3 -12 -10 -10 -8 1 -11 -1 -8 -6 3 -5 -5 -19 -17 -33 -25 -28
-39 -57 -57 -116 l-13 -42 -30 58 -30 58 -38 -15 c-38 -15 -52 -43 -28 -57 6
-4 8 -14 4 -23 -3 -9 -3 -13 1 -9 7 7 34 -37 34 -55 0 -5 7 -16 15 -24 8 -9
15 -24 15 -34 0 -10 7 -20 15 -24 8 -3 15 -12 15 -20 0 -9 9 -32 20 -51 11
-20 17 -42 14 -48 -4 -7 -4 -9 1 -5 8 8 85 -136 85 -159 0 -7 4 -13 9 -13 5 0
15 -16 21 -35 6 -19 16 -35 21 -35 5 0 9 -6 9 -13 0 -8 7 -28 16 -45 8 -18 12
-37 8 -43 -4 -8 -3 -9 4 -5 7 4 12 1 12 -8 0 -9 4 -16 9 -16 5 0 17 -22 27
-50 10 -27 22 -50 27 -50 5 0 6 -7 3 -16 -3 -8 -2 -12 4 -9 6 3 10 0 10 -7 1
-34 15 -38 58 -18 23 11 42 24 42 28 0 4 -38 82 -84 174 l-85 167 57 -20 c103
-36 229 -6 322 78 97 87 133 189 111 313 -7 38 -17 72 -22 76 -5 3 -9 12 -9
21 0 9 -16 38 -35 65 -20 27 -33 54 -29 60 4 7 3 8 -4 4 -7 -4 -21 2 -33 13
-12 11 -46 31 -76 45 -45 22 -67 26 -141 25 -56 0 -101 -6 -127 -16z m221 -91
c22 -11 48 -28 59 -39 31 -28 85 -100 80 -105 -3 -3 1 -18 10 -34 21 -41 20
-147 -2 -187 -24 -42 -39 -58 -48 -49 -5 4 -5 1 -1 -6 8 -14 -31 -55 -44 -47
-4 3 -10 -2 -14 -10 -3 -8 -12 -15 -20 -15 -8 0 -16 -6 -18 -12 -3 -8 -33 -14
-85 -16 -67 -3 -87 0 -122 17 -25 13 -39 26 -35 33 4 6 3 8 -3 5 -15 -10 -56
29 -47 45 4 7 4 10 -1 6 -18 -16 -54 47 -74 131 -11 42 -11 62 -1 95 20 69 42
106 87 145 79 70 192 87 279 43z"/>
<path d="M4697 6870 c-22 -26 -22 -86 -1 -108 9 -9 32 -16 52 -16 65 0 96 78
49 122 -29 28 -77 29 -100 2z"/>
<path d="M1910 6753 c-14 -2 -29 -9 -34 -14 -6 -5 -18 -9 -28 -9 -41 0 -178
-107 -178 -139 0 -7 -4 -9 -10 -6 -5 3 -12 -7 -16 -22 -4 -15 -14 -36 -23 -46
-12 -14 -15 -42 -15 -128 0 -72 4 -113 11 -117 6 -4 15 -20 18 -35 4 -15 12
-27 17 -27 6 0 7 -8 4 -17 -4 -10 -4 -14 0 -11 3 4 26 -14 50 -41 77 -85 208
-131 313 -111 158 31 272 146 311 311 12 53 11 62 -15 142 -22 71 -36 96 -81
146 -31 34 -76 70 -104 84 -37 19 -46 27 -33 30 16 4 16 5 1 6 -9 0 -20 -4
-23 -9 -5 -8 -11 -8 -20 0 -15 13 -107 21 -145 13z m115 -100 c27 -9 54 -20
60 -24 54 -42 84 -73 79 -80 -3 -5 0 -8 8 -7 7 2 12 -5 12 -14 -1 -10 2 -16 6
-13 7 4 16 -12 39 -68 13 -34 14 -111 2 -135 -5 -9 -16 -32 -23 -49 -7 -18
-16 -33 -20 -33 -5 0 -8 -6 -8 -12 0 -7 -26 -29 -58 -50 -65 -41 -130 -54
-205 -40 -52 10 -130 59 -120 75 3 6 1 7 -5 3 -26 -16 -102 132 -102 198 0
105 91 216 205 252 54 17 73 17 130 -3z"/>
<path d="M6160 6669 c-64 -10 -90 -22 -145 -64 -46 -35 -65 -51 -65 -59 0 -3
-11 -17 -25 -32 -14 -15 -25 -33 -25 -41 0 -8 -7 -21 -15 -29 -8 -9 -15 -27
-15 -40 0 -14 -3 -23 -7 -21 -11 7 -5 -114 8 -165 6 -23 11 -54 11 -67 0 -16
3 -20 8 -12 5 9 12 3 21 -18 8 -17 18 -31 23 -31 4 0 5 -8 2 -17 -4 -10 -4
-14 -1 -11 4 4 31 -13 61 -38 73 -59 125 -83 201 -90 l63 -7 0 46 c0 40 -2 45
-22 45 -42 -1 -113 18 -111 29 1 6 -6 9 -16 6 -16 -4 -35 10 -43 32 -1 5 -8 9
-14 7 -9 -2 -56 50 -78 86 -5 8 -14 39 -22 71 -16 73 -2 140 45 210 7 11 22 0
70 -48 33 -33 65 -61 71 -61 5 0 10 -4 10 -9 0 -11 58 -71 68 -71 9 0 36 -41
37 -55 0 -5 8 -9 18 -7 12 2 17 -2 15 -14 -2 -9 4 -18 12 -19 26 -4 93 -72 85
-86 -6 -8 -4 -10 4 -5 7 5 20 1 30 -8 17 -16 20 -14 54 23 42 47 55 69 79 136
19 54 24 160 8 170 -5 3 -10 14 -10 23 0 10 -9 34 -20 55 -11 21 -17 43 -14
49 4 6 3 8 -3 5 -5 -3 -32 15 -60 42 -70 67 -101 81 -213 96 -14 1 -50 -1 -80
-6z m145 -95 c22 -8 48 -17 58 -21 16 -5 21 -16 18 -35 0 -5 2 -7 7 -6 15 3
42 -15 42 -28 0 -8 3 -14 8 -14 28 0 49 -197 23 -223 -6 -6 -11 -17 -11 -25 0
-7 -7 -20 -16 -29 -14 -14 -17 -14 -32 3 -16 17 -16 17 3 3 18 -13 19 -13 6 3
-7 10 -17 15 -23 12 -12 -8 -49 36 -41 49 3 6 1 7 -5 3 -15 -9 -74 44 -67 61
2 8 0 11 -5 8 -5 -3 -51 34 -101 82 -50 48 -95 90 -100 91 -16 6 -9 17 24 37
75 46 144 55 212 29z"/>
<path d="M1056 6355 c-9 -13 -16 -30 -16 -37 0 -7 27 -32 60 -56 43 -31 57
-48 54 -60 -5 -13 -4 -14 4 -4 8 12 13 12 31 1 11 -8 21 -17 21 -21 0 -5 5 -8
10 -8 6 0 23 -12 38 -26 15 -14 39 -33 55 -42 15 -9 27 -20 27 -24 0 -4 7 -8
15 -8 8 0 15 -4 15 -8 0 -4 31 -30 70 -57 41 -30 68 -55 65 -63 -3 -7 -1 -11
4 -7 15 8 43 -6 37 -20 -2 -7 3 -12 12 -11 9 0 16 -5 14 -12 -1 -8 2 -11 8 -7
11 7 100 -53 100 -68 0 -6 3 -8 6 -4 4 3 13 -1 21 -9 8 -8 30 -26 49 -40 18
-15 31 -31 27 -37 -3 -6 -1 -7 6 -3 6 4 17 3 24 -3 10 -7 20 -1 40 24 27 33
34 55 20 55 -5 0 -22 13 -40 28 -18 15 -50 40 -72 56 -22 16 -37 34 -34 39 3
6 1 7 -4 4 -12 -8 -91 47 -100 68 -3 8 -9 13 -13 10 -5 -3 -14 1 -22 7 -7 7
-72 58 -145 112 -73 55 -130 102 -128 106 2 4 -1 7 -8 7 -13 0 -179 122 -185
136 -8 17 -51 6 -66 -18z"/>
<path d="M6630 6050 c-19 -5 -48 -12 -63 -16 -16 -4 -31 -13 -34 -20 -3 -8
-10 -14 -16 -14 -5 0 -26 -12 -45 -27 -20 -15 -32 -21 -27 -13 5 9 4 11 -4 6
-6 -4 -9 -11 -7 -15 3 -4 1 -13 -5 -21 -7 -13 -9 -13 -9 0 0 8 -11 -6 -23 -33
-13 -26 -27 -44 -32 -40 -4 5 -5 2 -1 -5 4 -7 2 -20 -6 -29 -9 -11 -13 -49
-13 -124 0 -90 3 -110 19 -127 10 -12 19 -32 20 -46 0 -13 3 -22 5 -20 2 2 11
-5 18 -16 12 -17 12 -24 2 -38 -11 -14 -11 -15 0 -5 10 9 25 2 66 -31 44 -36
153 -86 187 -86 4 0 8 20 8 45 0 35 -4 47 -17 51 -59 18 -108 42 -105 53 1 7
-2 9 -8 6 -13 -8 -54 36 -83 90 -30 57 -30 173 1 231 26 51 106 123 144 131
16 3 31 10 34 14 3 5 40 9 82 8 60 0 86 -6 117 -23 22 -12 39 -28 37 -35 -1
-7 2 -10 6 -7 10 6 52 -26 52 -39 0 -5 6 -16 13 -24 34 -41 45 -139 23 -206
-5 -15 0 -23 21 -32 43 -20 58 -16 71 20 15 42 16 137 1 174 -52 128 -118 203
-218 248 -42 19 -163 27 -211 15z"/>
<path d="M1180 5831 c-42 -8 -106 -37 -115 -51 -4 -6 -11 -8 -16 -5 -5 4 -9
-2 -9 -12 0 -14 -2 -15 -9 -5 -6 11 -10 8 -14 -10 -4 -12 -18 -35 -32 -50 -14
-15 -25 -34 -25 -41 0 -8 -7 -20 -15 -27 -8 -7 -15 -23 -15 -37 0 -13 -3 -22
-7 -20 -13 8 -14 -101 -3 -146 14 -53 60 -147 73 -147 5 0 6 -8 3 -17 -4 -10
-4 -14 0 -10 10 10 35 -13 27 -26 -3 -5 -1 -7 4 -4 6 4 40 -10 75 -31 89 -55
181 -74 247 -52 20 6 43 12 51 14 24 3 61 26 110 65 24 20 48 35 53 33 5 -1 5
2 2 8 -4 6 0 19 8 28 45 53 79 150 80 230 0 57 -19 136 -31 129 -4 -2 -21 -9
-39 -16 -29 -11 -31 -15 -22 -37 5 -14 9 -46 9 -72 0 -82 -80 -236 -112 -216
-7 4 -8 2 -4 -4 10 -16 -61 -59 -112 -67 -57 -9 -142 3 -142 20 0 27 222 455
233 448 6 -4 7 -1 2 6 -4 7 -2 23 5 36 15 29 7 55 -17 55 -10 0 -28 6 -39 14
-24 17 -152 28 -204 17z m161 -99 c8 -8 -2 -32 -30 -77 -11 -16 -20 -38 -20
-47 -1 -9 -7 -23 -14 -30 -7 -7 -19 -29 -27 -48 -7 -19 -19 -42 -25 -50 -6 -8
-18 -31 -25 -50 -7 -19 -18 -42 -24 -50 -6 -8 -20 -32 -30 -52 -11 -21 -24
-38 -29 -38 -19 0 -88 84 -82 99 3 9 3 12 -1 8 -11 -11 -34 62 -34 110 0 23 4
44 9 47 5 3 12 22 15 41 4 19 11 35 16 35 6 0 10 4 10 10 0 30 71 83 135 101
33 9 145 3 156 -9z"/>
<path d="M7475 5491 c-11 -9 -203 -71 -222 -71 -7 0 -27 -6 -45 -14 -18 -8
-53 -19 -78 -26 -25 -7 -53 -16 -62 -21 -10 -5 -26 -9 -37 -9 -10 0 -32 -7
-47 -15 -16 -8 -40 -15 -55 -15 -14 0 -29 -4 -35 -9 -5 -5 -36 -16 -69 -26
-33 -9 -75 -23 -93 -31 -18 -8 -44 -14 -57 -14 -13 0 -27 -4 -30 -10 -3 -5
-20 -10 -37 -10 -27 0 -30 -3 -23 -22 4 -13 9 -36 12 -51 5 -25 8 -27 37 -22
38 8 94 25 121 36 42 18 192 62 247 71 66 12 141 3 163 -18 8 -9 15 -12 15 -8
0 17 59 -50 78 -89 34 -69 41 -118 26 -186 -7 -37 -84 -121 -110 -121 -8 0
-28 -7 -44 -15 -16 -8 -44 -16 -63 -17 -19 -2 -33 -6 -31 -9 4 -7 -11 -11 -86
-25 -19 -4 -41 -11 -48 -17 -12 -9 -62 -23 -129 -34 -21 -3 -30 -9 -26 -16 4
-6 10 -27 13 -47 5 -31 9 -35 35 -33 30 2 92 18 130 33 11 5 47 16 80 25 33 9
67 20 75 24 8 5 42 16 75 25 95 28 160 74 209 151 26 39 27 194 2 240 -9 17
-16 34 -16 38 0 8 -44 70 -67 95 -6 6 -16 12 -22 12 -6 0 -11 4 -11 10 0 5
-17 17 -37 26 -24 10 -32 18 -23 21 94 27 130 38 157 50 17 7 35 13 40 13 4 0
45 12 91 27 l82 27 -6 35 c-4 20 -9 39 -11 44 -6 10 -57 9 -68 -2z"/>
<path d="M751 5180 c-7 -22 -9 -44 -6 -49 3 -5 36 -31 73 -57 37 -27 73 -54
80 -61 7 -7 33 -27 57 -44 24 -18 42 -37 38 -43 -3 -6 -3 -8 2 -4 9 8 65 -22
65 -34 0 -4 6 -8 14 -8 8 0 16 -4 18 -8 2 -5 40 -36 84 -69 l82 -60 -37 -13
c-20 -7 -63 -17 -96 -21 -105 -15 -170 -26 -185 -32 -18 -8 -162 -36 -245 -47
-68 -9 -95 -33 -95 -82 0 -29 1 -30 38 -25 20 3 71 13 112 22 41 9 98 20 125
25 28 5 86 16 130 25 44 9 105 20 135 25 179 30 204 36 210 50 28 55 32 70 25
87 -5 10 -7 22 -6 26 1 5 -2 6 -7 3 -9 -5 -75 35 -119 74 -15 14 -53 43 -83
64 -30 22 -61 46 -67 55 -7 8 -13 12 -13 8 0 -4 -9 1 -21 11 -41 34 -58 47
-83 66 -14 10 -23 22 -20 27 3 5 -1 7 -8 4 -16 -6 -70 39 -60 50 4 5 2 5 -5 2
-6 -4 -17 -2 -25 5 -18 18 -86 68 -91 68 -2 0 -9 -18 -16 -40z"/>
<path d="M875 4394 c-27 -7 -60 -14 -72 -14 -12 0 -23 -5 -25 -11 -2 -5 -10
-11 -18 -12 -26 -4 -130 -98 -130 -117 0 -6 -5 -8 -12 -4 -7 4 -8 3 -4 -4 4
-6 3 -19 -2 -29 -20 -39 -32 -92 -32 -141 0 -50 18 -142 31 -152 14 -12 38
-73 32 -83 -3 -6 -1 -7 6 -3 12 8 41 -16 41 -34 0 -6 4 -9 8 -6 5 3 24 -5 43
-18 59 -39 120 -56 201 -56 63 0 88 5 141 29 36 16 83 45 105 65 21 20 41 33
45 30 3 -3 5 1 4 8 -1 7 12 40 28 73 27 55 30 69 29 160 -1 109 -6 165 -14
160 -3 -2 -11 9 -18 24 -7 16 -27 46 -46 67 l-33 39 -27 -25 c-32 -31 -32 -34
0 -75 15 -20 23 -39 18 -46 -4 -7 -3 -9 3 -6 31 19 46 -180 19 -244 -22 -52
-87 -124 -97 -107 -7 10 -9 9 -9 -4 0 -10 -9 -22 -20 -28 -14 -7 -20 -7 -20 0
0 5 -11 10 -24 10 -20 0 -26 6 -29 33 -4 26 -4 25 -4 -9 1 -38 2 -40 26 -36
21 3 23 1 11 -7 -8 -6 -25 -11 -37 -11 l-23 0 0 294 c0 341 7 319 -95 290z
m30 -323 c4 -132 4 -245 0 -252 -5 -7 -22 -9 -48 -5 -50 8 -79 24 -71 38 4 7
3 8 -4 4 -16 -10 -78 53 -97 97 -22 53 -20 168 4 215 26 49 74 97 114 112 17
6 41 16 52 20 42 18 42 18 50 -229z"/>
<path d="M7697 4094 c-4 -4 -42 -11 -84 -16 -151 -16 -218 -26 -233 -32 -9 -4
-54 -11 -100 -16 -47 -5 -110 -13 -140 -19 -100 -18 -204 -34 -260 -40 -50 -6
-55 -8 -61 -36 -4 -16 -10 -39 -14 -51 -5 -17 0 -24 27 -38 67 -35 83 -46 80
-57 -1 -6 2 -8 7 -5 10 6 83 -29 156 -75 22 -14 61 -36 86 -49 32 -16 45 -29
42 -39 -4 -12 -2 -13 4 -3 7 9 22 5 66 -19 33 -18 54 -35 51 -41 -4 -7 -2 -8
4 -4 10 6 69 -18 82 -33 5 -6 43 -27 103 -58 31 -17 34 -22 10 -22 -30 -1
-166 -21 -211 -31 -23 -6 -63 -10 -88 -10 -25 0 -53 -4 -63 -10 -10 -5 -58
-14 -107 -19 -49 -6 -111 -15 -139 -21 -27 -5 -85 -15 -127 -22 l-77 -12 -12
-49 c-14 -58 -20 -52 134 -134 15 -8 27 -19 27 -25 0 -6 3 -9 6 -5 6 6 83 -29
94 -42 3 -3 35 -21 72 -40 37 -19 64 -39 61 -44 -3 -6 -1 -7 5 -3 6 4 46 -13
89 -37 43 -24 103 -57 133 -74 159 -87 190 -105 186 -111 -2 -4 9 -7 24 -8 23
-1 29 4 33 25 3 14 8 33 12 42 4 11 -7 22 -37 38 -100 52 -143 79 -143 89 0 6
-4 14 -9 19 -5 5 -6 3 -2 -4 10 -19 -8 -16 -48 7 -20 10 -66 36 -103 56 -37
21 -70 40 -73 44 -3 3 -25 16 -50 28 -69 34 -113 60 -120 73 -4 6 -11 10 -16
10 -18 -2 -44 11 -39 19 3 4 -3 14 -13 21 -15 13 -16 12 -3 -3 16 -21 -1 -25
-21 -5 -7 7 -26 19 -43 26 l-30 14 40 8 c22 4 81 13 130 19 50 6 113 15 140
21 28 5 87 14 130 20 168 21 213 28 309 43 55 9 100 18 101 19 10 20 20 109
12 114 -6 3 -7 1 -3 -5 13 -21 -7 -13 -79 29 -76 46 -113 66 -220 124 -38 21
-78 45 -89 54 -10 9 -21 15 -25 14 -3 -1 -22 8 -41 19 -54 33 -112 66 -147 84
-18 9 -30 21 -26 27 3 6 1 7 -5 3 -10 -6 -74 24 -95 44 -5 4 13 10 40 13 26 3
98 13 158 22 61 9 144 21 185 26 41 5 104 14 140 19 36 5 103 14 150 20 47 6
100 14 117 16 35 5 49 23 58 73 l5 31 -53 0 c-30 0 -57 -3 -60 -6z"/>
<path d="M886 3589 c-10 -6 -35 -14 -55 -16 -20 -3 -42 -10 -48 -15 -7 -6 -19
-8 -27 -5 -9 4 -17 -1 -21 -13 -6 -19 -49 -35 -65 -25 -6 4 -10 2 -10 -4 0 -5
6 -12 13 -14 6 -3 -1 -6 -18 -7 -16 -1 -25 -4 -18 -6 8 -4 3 -15 -14 -34 -14
-16 -30 -27 -36 -23 -6 3 -7 2 -4 -4 4 -6 0 -19 -8 -29 -8 -10 -15 -27 -15
-37 0 -10 -4 -16 -9 -12 -6 3 -13 -11 -17 -32 -3 -21 -12 -48 -20 -60 -16 -26
-20 -228 -5 -238 5 -3 12 -20 16 -38 4 -17 13 -50 20 -72 8 -22 24 -74 35
-115 12 -41 27 -85 32 -97 6 -12 8 -29 4 -38 -3 -9 -2 -13 4 -10 6 3 10 -5 10
-20 0 -14 7 -28 15 -31 9 -4 59 8 113 25 106 34 127 37 116 19 -4 -7 -3 -8 5
-4 6 4 9 11 6 16 -3 5 7 12 22 15 15 4 35 10 44 15 9 5 34 12 55 16 22 3 44
10 49 14 8 6 124 43 255 82 19 6 51 16 70 23 19 7 55 18 80 25 82 22 89 28 77
64 -5 17 -14 40 -18 51 -5 11 -11 29 -12 40 -2 11 -9 33 -15 48 -7 16 -12 36
-12 46 0 9 -4 21 -9 27 -4 5 -20 47 -35 93 -28 88 -53 147 -71 168 -5 7 -23
30 -40 51 -50 64 -155 142 -192 142 -8 0 -12 3 -10 8 6 8 -13 10 -133 17 -54
3 -92 1 -104 -6z m208 -110 c34 -12 66 -27 72 -35 6 -7 13 -11 16 -9 3 3 26
-15 52 -41 32 -31 45 -51 41 -62 -3 -9 -3 -13 1 -10 7 8 34 -15 34 -29 0 -5 9
-26 20 -48 11 -22 20 -45 20 -52 0 -7 4 -13 8 -13 4 0 8 -9 9 -20 2 -25 41
-159 54 -182 11 -21 12 -49 2 -46 -12 2 -65 -12 -100 -28 -17 -8 -40 -14 -50
-14 -10 0 -23 -4 -28 -9 -6 -5 -37 -16 -70 -25 -33 -9 -76 -23 -95 -30 -19 -8
-55 -19 -80 -26 -25 -7 -62 -19 -82 -26 -23 -8 -38 -10 -38 -4 0 6 -10 10 -22
9 -19 0 -20 -2 -6 -7 15 -6 14 -9 -10 -18 -107 -42 -145 -49 -148 -26 0 4 -6
20 -12 35 -7 16 -12 36 -12 46 0 9 -4 21 -9 27 -14 14 -41 116 -34 128 3 6 2
7 -3 3 -11 -11 -33 85 -34 151 0 66 19 144 33 135 6 -3 7 -1 3 5 -19 31 116
191 150 178 9 -3 12 -1 9 4 -3 6 2 13 12 16 10 3 26 10 35 15 10 5 28 9 40 9
13 0 30 5 38 10 26 17 121 11 184 -11z"/>
<path d="M6518 2868 c-32 -50 -30 -57 23 -83 27 -14 47 -30 44 -34 -2 -5 3
-15 13 -22 15 -13 16 -12 3 4 -7 9 -10 17 -7 17 9 0 130 -62 136 -70 3 -4 13
-9 23 -13 10 -4 16 -11 12 -16 -3 -5 0 -13 6 -17 8 -4 9 -3 5 4 -4 7 -1 12 6
12 19 -1 49 -26 41 -34 -4 -4 0 -4 8 -1 18 7 80 -52 106 -101 23 -44 21 -131
-5 -183 -12 -25 -21 -45 -19 -46 38 -23 80 -45 81 -43 0 2 6 12 12 23 27 49
37 132 24 194 -7 34 -17 61 -21 61 -5 0 -9 4 -9 10 0 5 25 -4 56 -21 30 -17
57 -29 58 -27 1 1 12 20 24 40 l21 37 -46 25 c-25 15 -49 26 -54 26 -4 0 -14
6 -21 13 -7 7 -42 27 -78 45 -85 42 -144 75 -148 85 -2 4 -12 7 -22 7 -10 0
-21 4 -25 9 -3 5 -47 31 -98 57 -50 26 -93 51 -95 55 -7 17 -40 9 -54 -13z"/>
<path d="M6258 2445 l-17 -34 32 -26 c47 -38 48 -38 100 -74 29 -20 45 -37 41
-44 -4 -7 -4 -9 1 -5 9 8 65 -22 65 -34 0 -4 7 -8 15 -8 9 0 18 -7 21 -15 4
-8 12 -15 20 -15 8 0 14 -4 14 -10 0 -5 4 -10 10 -10 17 0 60 -43 53 -53 -3
-6 -1 -7 5 -3 6 4 51 -22 101 -58 l89 -65 28 40 c30 44 30 44 -38 86 -16 10
-28 21 -28 25 0 4 -5 8 -11 8 -18 0 -109 77 -101 85 4 5 2 5 -4 2 -7 -4 -29 7
-49 23 -21 17 -42 30 -47 30 -6 0 -7 7 -4 16 3 8 2 12 -4 9 -14 -9 -102 54
-94 67 4 6 3 8 -3 5 -10 -6 -95 48 -101 65 -2 4 -10 8 -18 8 -8 0 -14 5 -14
10 0 6 -10 10 -22 10 -16 0 -28 -11 -40 -35z"/>
<path d="M1630 2400 c-42 -24 -100 -46 -100 -39 0 5 -4 9 -10 9 -5 0 -7 -7 -3
-16 5 -13 1 -15 -18 -9 -15 4 -19 3 -11 -3 9 -6 5 -15 -19 -35 -18 -14 -36
-24 -40 -21 -5 3 -6 -2 -3 -10 3 -9 1 -16 -5 -16 -6 0 -11 -7 -11 -15 0 -8 -4
-15 -9 -15 -5 0 -11 -8 -14 -17 -4 -10 -15 -43 -27 -73 -24 -64 -26 -143 -5
-184 8 -15 15 -34 15 -41 0 -7 7 -25 14 -41 8 -15 12 -32 9 -38 -3 -6 -3 -8 1
-4 5 4 29 -13 54 -38 69 -69 143 -103 222 -104 41 -1 43 -2 26 -15 -10 -8 -22
-12 -27 -10 -4 3 -11 0 -15 -6 -5 -8 -2 -10 7 -5 8 4 -11 -16 -41 -44 -30 -29
-54 -57 -52 -62 1 -5 -1 -7 -6 -4 -5 3 -38 -21 -73 -54 -35 -33 -67 -59 -71
-60 -16 0 -7 -26 20 -57 l29 -32 66 60 c40 36 71 57 78 53 7 -4 9 -3 6 3 -7
10 4 21 169 171 68 61 96 81 110 76 15 -5 16 -4 4 5 -8 5 -12 12 -10 14 9 7
195 171 230 203 19 18 47 42 63 54 15 12 27 24 27 28 0 4 -14 22 -31 41 -23
24 -33 30 -39 21 -4 -7 -13 -9 -19 -6 -7 5 -10 2 -9 -6 2 -7 -3 -12 -10 -10
-8 1 -11 -1 -8 -6 3 -5 -5 -18 -17 -30 l-22 -21 3 65 c4 68 -14 134 -52 189
-26 37 -84 93 -111 106 -11 5 -27 13 -35 18 -65 38 -189 55 -230 31z m224
-126 c28 -18 46 -36 46 -48 0 -11 3 -16 6 -13 12 11 54 -46 61 -83 5 -19 7
-65 7 -102 -2 -55 -7 -75 -30 -112 -19 -30 -31 -41 -36 -33 -5 8 -8 3 -8 -11
0 -13 -4 -21 -9 -18 -5 3 -12 -1 -15 -10 -3 -8 -11 -12 -16 -9 -6 4 -9 1 -8
-6 4 -15 -51 -43 -112 -57 -44 -10 -95 -3 -155 23 -93 40 -167 170 -150 262
15 86 55 145 137 207 51 38 82 46 164 42 59 -2 80 -8 118 -32z"/>
<path d="M6055 2171 c-11 -5 -31 -7 -45 -5 -22 4 -23 3 -5 -5 11 -5 15 -10 9
-10 -14 -1 -86 -70 -101 -98 -7 -13 -13 -30 -13 -38 0 -9 -3 -14 -7 -12 -5 3
-9 -5 -9 -18 -1 -18 6 -26 29 -34 42 -15 44 -15 51 20 7 36 65 96 101 105 14
3 35 4 48 0 28 -7 73 -44 69 -58 -1 -5 2 -7 7 -4 11 7 33 -19 23 -28 -4 -4 0
-6 8 -4 8 2 14 -3 12 -10 -1 -8 1 -11 6 -8 12 7 134 -118 125 -128 -4 -4 -1
-6 7 -4 8 1 14 -3 12 -10 -1 -6 1 -11 5 -11 24 4 35 -3 29 -17 -3 -8 -2 -13 3
-10 5 3 21 -6 37 -19 l29 -25 -27 -24 c-16 -13 -28 -28 -28 -35 0 -6 -5 -11
-11 -11 -11 0 -39 -25 -39 -35 0 -3 -12 -16 -26 -28 l-25 -22 31 -30 31 -30
76 79 75 80 49 -52 c27 -29 52 -52 57 -52 4 0 23 14 41 31 25 23 31 33 21 39
-7 4 -9 13 -5 20 5 8 4 11 -3 7 -5 -4 -30 11 -54 33 l-43 40 43 40 c40 39 54
70 31 70 -6 0 -9 7 -6 14 4 10 1 13 -7 10 -8 -3 -17 -1 -20 5 -4 6 -26 -9 -51
-35 -38 -38 -47 -43 -59 -32 -7 7 -86 84 -175 171 -88 86 -167 157 -173 157
-10 0 -10 2 0 9 10 6 5 8 -15 9 -15 0 -44 3 -63 6 -19 3 -44 1 -55 -3z"/>
<path d="M2277 1853 c-30 -3 -37 -8 -33 -19 3 -9 6 -29 6 -45 0 -30 1 -30 43
-24 23 3 66 2 94 -3 56 -9 137 -58 126 -75 -3 -6 -1 -7 5 -3 12 7 62 -42 62
-61 0 -7 5 -13 10 -13 6 0 10 -11 10 -24 0 -14 5 -28 10 -31 6 -3 10 -30 10
-60 0 -30 -4 -57 -10 -60 -5 -3 -10 -17 -10 -31 0 -25 -27 -44 -39 -28 -6 9
-127 94 -134 94 -10 0 -166 108 -162 112 3 3 -1 5 -9 5 -8 0 -46 21 -84 48
-39 26 -77 45 -84 43 -7 -3 -26 -30 -43 -59 -28 -50 -30 -61 -30 -159 0 -97 3
-109 30 -157 16 -29 33 -53 38 -53 5 0 6 -7 3 -16 -3 -8 -2 -13 2 -11 10 7 32
-19 24 -29 -4 -4 -2 -4 5 0 6 3 33 -7 60 -24 26 -17 63 -35 83 -40 52 -15 159
-11 205 6 22 9 48 16 57 17 9 1 16 4 15 7 0 3 24 30 54 61 68 70 71 75 91 124
33 83 40 145 23 210 -23 88 -42 123 -97 177 -100 98 -202 135 -331 121z m-19
-361 c57 -37 111 -71 120 -77 10 -5 32 -20 49 -32 17 -13 34 -23 37 -23 3 0
24 -13 46 -29 l40 -29 -36 -31 c-19 -17 -40 -29 -45 -25 -5 3 -8 0 -7 -6 3
-14 -73 -40 -117 -40 -34 0 -104 22 -114 36 -3 5 -13 10 -21 12 -27 6 -88 81
-104 129 -19 55 -20 87 -5 134 6 19 13 40 15 48 6 18 22 11 142 -67z"/>
<path d="M5660 1836 c-67 -23 -125 -56 -172 -100 -27 -25 -48 -50 -48 -56 0
-6 -4 -8 -10 -5 -5 3 -10 0 -10 -8 0 -8 -6 -27 -14 -43 -8 -16 -17 -43 -20
-59 -6 -28 -4 -32 27 -43 45 -16 43 -18 56 32 12 47 101 156 127 156 8 0 14 4
14 8 0 13 97 42 139 42 56 0 106 -18 152 -53 37 -28 70 -71 41 -53 -6 3 -13
-3 -17 -14 -4 -11 -10 -18 -14 -15 -5 2 -16 -4 -26 -15 -10 -11 -22 -17 -26
-14 -5 3 -9 1 -9 -4 0 -17 -68 -52 -74 -39 -2 7 -5 3 -5 -8 -1 -13 -13 -25
-33 -35 -18 -7 -37 -18 -43 -22 -34 -29 -136 -98 -145 -98 -5 0 -10 -4 -10 -9
0 -5 -8 -11 -17 -15 -10 -3 -27 -11 -38 -18 -11 -7 -21 -14 -23 -15 -17 -8
107 -139 146 -154 13 -5 21 -13 17 -18 -3 -5 0 -13 6 -17 8 -5 9 -3 4 6 -6 10
-2 12 16 6 121 -34 178 -30 275 19 26 13 52 21 58 18 6 -3 8 -3 4 2 -4 4 10
24 30 44 20 21 50 62 67 92 25 47 29 64 30 139 0 67 -5 96 -23 138 -13 29 -20
58 -16 64 4 7 3 8 -4 4 -7 -4 -12 -3 -12 2 0 15 -105 113 -141 132 -80 41
-183 52 -259 26z m350 -272 c17 -44 12 -172 -7 -207 -16 -28 -59 -75 -95 -102
-51 -39 -165 -46 -232 -15 -41 20 -105 75 -95 84 2 2 42 27 89 56 47 29 99 64
117 77 18 14 37 22 43 18 6 -4 9 -2 8 3 -3 9 139 112 155 112 4 0 12 -12 17
-26z"/>
<path d="M5146 1555 c-8 -9 -18 -16 -21 -15 -22 1 -25 -3 -19 -27 4 -16 10
-32 14 -38 3 -5 14 -32 24 -60 19 -54 26 -71 50 -127 9 -20 16 -41 16 -47 0
-7 6 -22 14 -34 8 -12 19 -46 26 -74 17 -76 -1 -142 -57 -199 -39 -40 -74 -60
-57 -32 4 7 3 8 -5 4 -6 -4 -9 -11 -6 -16 3 -5 -4 -11 -15 -15 -23 -7 -24 -12
-8 -64 l12 -38 50 29 c28 17 59 37 70 47 27 23 66 88 66 108 1 44 18 44 31 0
21 -74 29 -80 75 -61 49 20 47 18 36 41 -21 38 -42 92 -42 105 0 8 -4 18 -9
24 -8 8 -100 236 -133 329 -6 17 -20 53 -33 80 -12 28 -25 60 -29 73 -8 26
-28 28 -50 7z"/>
<path d="M3059 1440 c-6 -16 -14 -30 -18 -30 -4 0 -13 -16 -21 -35 -7 -19 -17
-32 -22 -29 -4 3 -8 -2 -8 -11 0 -9 -17 -42 -37 -73 -43 -64 -54 -82 -83 -137
-40 -79 -63 -108 -75 -97 -5 4 -5 2 -1 -5 4 -7 -5 -30 -19 -52 -14 -23 -25
-45 -25 -51 0 -5 -4 -10 -8 -10 -5 0 -15 -16 -22 -35 -9 -23 -19 -34 -28 -30
-7 2 -10 1 -7 -4 5 -8 -11 -42 -50 -109 -5 -10 -20 -32 -32 -49 -30 -41 -29
-60 5 -65 15 -3 35 -9 45 -13 10 -4 17 -3 17 3 0 8 83 147 160 269 8 12 20 19
29 16 14 -4 14 -3 2 5 -12 9 -1 33 63 139 44 70 87 142 96 158 9 17 32 55 51
85 l34 55 7 -60 c3 -33 11 -76 17 -95 6 -19 11 -59 11 -89 0 -54 7 -119 35
-336 8 -60 17 -144 19 -185 6 -83 18 -100 72 -100 34 0 41 8 90 97 15 26 37
62 50 80 13 17 24 36 24 42 0 6 4 11 9 11 5 0 11 8 15 18 3 9 10 24 15 32 6 8
60 96 121 195 81 131 116 179 128 177 13 -2 14 -1 3 6 -11 8 -10 14 4 36 22
33 24 33 23 -1 0 -27 7 -93 38 -329 8 -61 14 -129 14 -152 0 -22 4 -63 10 -89
5 -26 11 -94 13 -151 3 -57 8 -106 12 -110 5 -4 5 -1 0 7 -5 10 -3 12 11 8 11
-3 34 -9 53 -12 l34 -7 -8 78 c-4 44 -11 120 -15 169 -4 50 -15 149 -24 220
-13 113 -22 193 -52 465 l-6 56 -52 12 c-34 8 -52 9 -54 2 -2 -6 -9 -7 -14 -4
-7 4 -8 2 -4 -4 7 -11 -8 -44 -31 -69 -9 -10 -12 -10 -16 0 -2 6 -3 3 -1 -8 3
-23 -19 -58 -30 -48 -4 4 -4 0 -1 -9 4 -10 -1 -25 -12 -36 -10 -10 -25 -32
-34 -48 -26 -48 -44 -79 -49 -84 -3 -3 -14 -23 -25 -45 -23 -46 -41 -68 -48
-57 -2 4 -2 1 0 -6 4 -17 -21 -54 -31 -45 -4 4 -4 0 0 -10 3 -9 2 -17 -2 -17
-5 0 -18 -18 -28 -40 -11 -22 -22 -40 -26 -40 -3 0 -12 -16 -20 -35 -8 -19
-17 -35 -22 -35 -4 0 -8 -6 -8 -12 0 -7 -9 -24 -20 -38 l-20 -25 -2 38 c-1 20
-3 49 -5 65 -2 15 -8 77 -13 137 -6 61 -15 130 -20 155 -9 42 -17 112 -40 343
-5 49 -14 95 -21 103 -7 9 -30 14 -61 14 -46 0 -50 -2 -59 -30z"/>
<path d="M4393 1351 c-32 -27 -32 -93 -1 -115 58 -41 121 -2 116 70 -2 23 -6
40 -9 38 -3 -2 -15 3 -25 11 -26 20 -55 18 -81 -4z"/>
</g>
</svg>
