


<svg version="1.0" xmlns="http://www.w3.org/2000/svg"
 width="810.000000pt" height="810.000000pt" viewBox="0 0 810.000000 810.000000"
 preserveAspectRatio="xMidYMid meet">

<g transform="translate(0.000000,810.000000) scale(0.100000,-0.100000)"
fill="#000000" stroke="none">
<path d="M4080 6840 c0 -5 -11 -10 -25 -10 -16 0 -25 -6 -25 -15 0 -8 -4 -15
-9 -15 -5 0 -16 -3 -25 -6 -11 -4 -16 0 -16 14 0 29 -8 32 -73 25 l-57 -6 5
-161 c3 -89 8 -194 11 -233 l6 -73 64 0 64 0 0 139 c0 77 4 151 10 165 12 33
66 66 108 66 l32 0 0 60 0 60 -35 0 c-19 0 -35 -4 -35 -10z"/>
<path d="M3404 6756 c-51 -29 -84 -61 -84 -81 0 -8 -4 -15 -10 -15 -15 0 -40
-68 -40 -112 0 -64 28 -134 73 -179 59 -58 96 -71 197 -67 99 4 167 32 208 86
l25 32 -34 30 c-41 36 -44 36 -73 5 -13 -14 -31 -25 -40 -25 -9 0 -19 -7 -22
-15 -7 -17 -114 -22 -114 -5 0 5 -11 12 -24 16 -13 3 -28 16 -34 28 -10 23 -8
24 146 62 179 44 169 41 182 43 6 0 10 14 10 30 0 17 -4 33 -10 36 -5 3 -10
14 -10 24 0 24 -64 96 -102 115 -21 11 -59 16 -117 16 -72 0 -93 -4 -127 -24z
m196 -87 c0 -6 7 -17 15 -26 29 -29 8 -43 -90 -59 -16 -3 -39 -9 -50 -14 -11
-5 -32 -10 -47 -13 -22 -3 -28 0 -28 15 0 28 26 74 52 92 26 19 148 23 148 5z"/>
<path d="M5067 6773 c-4 -3 -7 -15 -7 -25 0 -10 -4 -18 -10 -18 -5 0 -10 -10
-10 -23 0 -16 13 -30 45 -50 25 -15 52 -27 59 -27 31 0 60 -60 36 -75 -5 -3
-10 -17 -10 -31 0 -13 -3 -24 -8 -24 -11 0 -72 -96 -72 -114 0 -9 -4 -16 -10
-16 -5 0 -12 -11 -16 -25 -3 -14 -10 -25 -15 -25 -5 0 -9 -9 -9 -20 0 -11 -4
-20 -10 -20 -5 0 -10 -6 -10 -14 0 -8 -6 -21 -12 -28 -22 -23 -45 -72 -41 -88
2 -8 28 -27 59 -42 49 -23 56 -24 62 -10 3 10 22 44 42 77 20 33 48 83 62 110
14 28 34 66 45 85 11 19 35 61 52 93 18 31 37 57 42 57 8 0 43 -19 127 -67 24
-14 44 -24 46 -22 9 13 46 91 46 99 0 5 -10 12 -22 16 -13 4 -40 18 -60 30
-21 13 -47 24 -58 24 -11 0 -20 7 -20 15 0 8 -9 15 -20 15 -11 0 -20 5 -20 10
0 6 -4 10 -10 10 -5 0 -39 18 -75 40 -36 22 -72 40 -80 40 -8 0 -15 4 -15 8 0
8 -69 42 -87 42 -5 0 -13 -3 -16 -7z"/>
<path d="M2945 6590 c-3 -5 -13 -10 -22 -10 -15 0 -70 -38 -65 -46 1 -2 0 -4
-3 -4 -13 0 -45 -42 -45 -60 0 -23 -15 -27 -24 -5 -3 8 -17 15 -31 15 -14 0
-28 -7 -31 -15 -4 -8 -14 -15 -23 -15 -38 -1 -45 -15 -25 -59 10 -22 24 -41
31 -41 7 0 10 -6 7 -14 -3 -7 2 -20 10 -29 9 -9 16 -19 16 -23 0 -15 34 -84
42 -84 4 0 8 -7 8 -15 0 -8 5 -15 10 -15 6 0 10 -8 11 -17 0 -10 9 -31 20 -48
10 -16 24 -42 30 -57 6 -16 15 -28 20 -28 5 0 9 -9 9 -20 0 -11 7 -23 15 -26
8 -4 15 -12 15 -18 0 -7 9 -31 20 -55 18 -36 24 -41 43 -35 27 9 97 52 97 60
0 7 -42 86 -50 94 -11 11 -40 72 -40 85 0 9 11 12 39 8 49 -7 137 32 175 78
59 69 73 168 36 253 -22 53 -103 136 -131 136 -10 0 -19 5 -19 10 0 6 -30 10
-69 10 -39 0 -73 -4 -76 -10z m120 -139 c45 -44 55 -58 55 -80 0 -11 5 -21 11
-23 9 -3 9 -9 0 -25 -6 -12 -11 -33 -11 -47 0 -16 -6 -26 -15 -26 -8 0 -15 -3
-15 -7 0 -5 -20 -16 -44 -26 -40 -17 -46 -17 -83 -2 -52 21 -93 83 -93 143 0
36 6 49 38 82 32 35 43 40 82 40 37 0 51 -6 75 -29z"/>
<path d="M4454 6462 c-11 -10 -25 -32 -32 -49 -9 -28 -8 -37 11 -65 25 -37 59
-49 100 -35 34 11 47 34 47 86 0 31 -6 44 -26 60 -32 25 -72 26 -100 3z"/>
<path d="M2460 6241 c0 -5 -15 -13 -32 -17 -18 -3 -38 -14 -45 -23 -7 -9 -13
-13 -13 -9 0 11 -60 -50 -60 -62 0 -5 -4 -10 -9 -10 -38 0 -57 -195 -26 -256
35 -68 105 -117 184 -130 100 -16 224 55 277 158 31 61 33 161 5 216 -24 47
-104 122 -130 122 -11 0 -23 5 -26 10 -8 13 -125 13 -125 1z m95 -132 c75 -27
104 -150 51 -211 -13 -16 -29 -28 -36 -28 -8 0 -21 -7 -31 -16 -16 -14 -20
-14 -48 0 -16 9 -37 16 -46 16 -8 0 -15 4 -15 8 0 5 -8 17 -18 28 -22 25 -42
69 -42 96 0 29 39 94 64 106 28 14 83 14 121 1z"/>
<path d="M5479 6237 c-45 -21 -109 -78 -109 -98 0 -10 -4 -19 -10 -19 -5 0
-10 -8 -10 -17 0 -10 -7 -27 -15 -37 -19 -26 -19 -90 0 -110 8 -8 15 -26 15
-40 0 -14 5 -26 10 -26 6 0 10 -7 10 -16 0 -45 149 -144 218 -144 l33 0 -3 53
c-3 49 -5 52 -32 55 -49 6 -102 46 -123 95 -14 29 -18 99 -7 110 10 9 64 -25
64 -40 0 -7 5 -13 10 -13 6 0 52 -40 103 -90 50 -49 96 -90 100 -90 15 0 58
54 78 97 70 155 -65 345 -244 342 -34 0 -74 -6 -88 -12z m160 -104 c17 -10 31
-21 31 -25 0 -5 6 -8 13 -8 15 0 37 -55 37 -94 0 -25 -19 -56 -35 -56 -7 0
-167 162 -163 165 60 41 72 43 117 18z"/>
<path d="M1905 5948 c-4 -11 -19 -32 -33 -45 -30 -28 -25 -44 22 -71 16 -9 39
-27 52 -39 13 -13 28 -23 34 -23 6 0 25 -13 42 -29 18 -17 43 -36 57 -43 15
-7 36 -23 49 -35 13 -13 29 -23 37 -23 7 0 15 -4 17 -8 3 -8 53 -48 122 -97
16 -11 34 -26 41 -32 23 -22 50 -14 70 20 10 17 26 39 34 47 13 13 13 15 -2
18 -9 2 -17 9 -17 15 -1 13 -74 67 -90 67 -6 0 -10 4 -10 8 0 5 -16 17 -35 28
-19 10 -35 21 -35 25 0 10 -78 59 -95 59 -8 0 -15 6 -15 13 0 10 -123 103
-153 116 -4 1 -20 14 -34 27 -32 30 -50 30 -58 2z"/>
<path d="M5877 5822 c-22 -2 -41 -10 -44 -18 -3 -8 -13 -14 -22 -14 -24 0 -91
-61 -91 -83 0 -9 -4 -17 -10 -17 -5 0 -10 -11 -10 -24 0 -14 -4 -28 -10 -31
-5 -3 -10 -24 -10 -45 0 -21 5 -42 10 -45 6 -3 10 -16 10 -29 0 -51 93 -176
131 -176 9 0 19 -4 21 -10 2 -5 24 -13 51 -16 47 -7 47 -7 47 22 0 16 -3 46
-6 67 -6 34 -9 37 -39 37 -44 0 -105 65 -105 113 0 51 46 114 98 134 42 16 47
15 98 -2 36 -12 54 -24 54 -35 0 -9 4 -20 9 -25 14 -14 20 -67 10 -86 -10 -20
-1 -33 38 -53 53 -27 70 -22 78 23 8 47 -2 126 -21 163 -20 40 -97 118 -116
118 -9 0 -18 5 -20 12 -5 13 -93 25 -151 20z"/>
<path d="M1985 5571 c-11 -5 -28 -7 -37 -6 -9 2 -19 -3 -22 -11 -3 -8 -12 -14
-21 -14 -22 0 -105 -88 -105 -110 0 -10 -4 -22 -10 -25 -16 -10 -12 -168 5
-202 22 -45 63 -81 120 -109 130 -61 262 -6 334 140 28 57 32 74 29 133 -3 62
-5 68 -25 71 -13 2 -23 -1 -23 -7 0 -5 -10 -11 -22 -13 -20 -3 -23 -10 -26
-52 -2 -27 -10 -55 -18 -63 -8 -8 -14 -21 -14 -29 0 -8 -4 -14 -10 -14 -5 0
-10 -5 -10 -11 0 -15 -26 -39 -44 -39 -8 0 -22 -7 -31 -16 -12 -13 -19 -14
-30 -4 -8 7 -15 17 -15 22 0 8 91 203 131 280 20 38 0 62 -61 72 -14 2 -36 7
-50 10 -14 3 -34 1 -45 -3z m42 -117 c3 -9 -1 -29 -11 -44 -9 -16 -16 -38 -16
-49 0 -12 -4 -21 -10 -21 -5 0 -10 -11 -10 -25 0 -16 -6 -25 -15 -25 -9 0 -15
-9 -15 -25 0 -33 -26 -33 -53 2 -15 19 -20 38 -18 67 3 51 21 79 69 110 44 29
70 32 79 10z"/>
<path d="M6390 5421 c-25 -9 -50 -19 -56 -23 -6 -4 -22 -9 -36 -12 -14 -2 -34
-9 -44 -14 -11 -6 -37 -15 -59 -21 -22 -6 -50 -13 -62 -16 -13 -4 -23 -11 -23
-16 0 -5 -13 -9 -30 -9 -16 0 -30 -4 -30 -10 0 -5 -13 -10 -28 -10 -15 0 -32
-4 -38 -10 -5 -5 -18 -11 -29 -13 -38 -6 -85 -32 -85 -47 0 -8 7 -28 15 -44 8
-15 15 -37 15 -48 0 -15 4 -18 18 -13 34 13 194 65 233 75 77 21 152 -29 158
-103 3 -39 -22 -77 -49 -77 -6 0 -13 -7 -16 -15 -4 -9 -19 -15 -35 -15 -16 0
-29 -4 -29 -10 0 -5 -11 -10 -24 -10 -22 0 -66 -15 -131 -45 -16 -7 -33 -11
-37 -9 -11 7 -10 -1 8 -57 9 -27 21 -49 26 -49 5 0 6 -4 3 -10 -3 -5 -3 -10 1
-10 11 0 275 90 298 102 31 16 76 59 92 90 17 33 18 106 2 145 -6 15 -11 31
-10 34 1 4 -18 28 -42 54 l-44 46 26 10 c14 5 61 21 104 35 43 14 78 30 78 35
0 6 -7 32 -16 60 -15 45 -19 49 -48 48 -17 -1 -51 -9 -76 -18z"/>
<path d="M1662 5090 c-6 -11 -12 -37 -12 -59 0 -39 2 -40 113 -118 62 -43 125
-84 140 -92 44 -23 34 -41 -24 -41 -28 0 -59 -5 -70 -11 -11 -5 -45 -13 -77
-16 -31 -3 -65 -9 -74 -14 -9 -5 -30 -9 -47 -9 -28 0 -31 -3 -32 -32 -2 -48
-5 -74 -12 -91 -6 -15 24 -11 208 29 39 8 95 19 125 24 78 12 163 29 167 34 3
2 8 29 12 60 4 31 11 59 14 62 9 9 -43 53 -70 60 -13 4 -23 10 -23 14 0 11
-116 90 -134 90 -9 0 -16 7 -16 15 0 8 -6 15 -14 15 -8 0 -16 3 -18 8 -4 10
-125 92 -135 92 -5 0 -14 -9 -21 -20z"/>
<path d="M1753 4523 c-13 -2 -23 -9 -23 -14 0 -5 -13 -9 -30 -9 -16 0 -30 -4
-30 -8 0 -5 -11 -15 -25 -22 -14 -7 -25 -19 -25 -27 0 -7 -4 -13 -10 -13 -5 0
-10 -7 -10 -15 0 -8 -3 -15 -7 -15 -13 0 -46 -118 -40 -142 19 -77 26 -102 34
-107 4 -3 15 -19 23 -35 8 -16 24 -34 35 -40 11 -6 22 -13 25 -17 3 -3 21 -13
42 -22 50 -23 138 -22 193 3 145 66 191 289 88 428 l-25 34 -28 -27 c-33 -31
-43 -62 -26 -73 16 -9 35 -117 24 -134 -4 -7 -8 -23 -8 -35 0 -23 -32 -63 -49
-63 -5 0 -12 -6 -14 -12 -13 -31 -27 23 -28 107 0 50 -4 128 -7 175 -7 82 -8
85 -32 86 -14 1 -35 0 -47 -3z m11 -220 c3 -49 8 -103 10 -120 3 -28 1 -33
-18 -33 -33 0 -86 54 -93 94 -9 58 4 99 40 124 17 12 37 22 43 22 7 0 14 -33
18 -87z"/>
<path d="M6685 4469 c-16 -5 -59 -14 -95 -19 -36 -5 -96 -17 -135 -26 -38 -9
-103 -19 -144 -23 -45 -4 -76 -11 -79 -19 -2 -8 -28 -12 -77 -12 -82 0 -74 7
-95 -88 -14 -60 -9 -82 19 -82 11 0 21 -4 23 -9 2 -5 44 -29 93 -53 50 -25
128 -65 175 -89 l85 -43 -43 -7 c-24 -3 -47 -10 -50 -15 -4 -6 -38 -11 -76
-13 -39 -1 -75 -6 -81 -11 -6 -5 -45 -12 -86 -16 -103 -9 -117 -21 -120 -104
l-3 -65 50 -27 c27 -15 57 -28 67 -28 9 0 17 -4 17 -8 0 -9 69 -42 88 -42 5 0
12 -4 14 -9 2 -4 66 -38 143 -75 77 -38 147 -72 155 -77 48 -29 49 -28 59 45
9 68 2 76 -139 135 -14 6 -32 15 -40 21 -25 16 -104 51 -124 55 -11 3 -22 9
-25 13 -3 5 -21 17 -39 26 -44 23 -29 42 35 44 26 1 68 7 93 12 25 5 92 17
150 25 140 21 137 20 144 63 4 20 9 49 12 64 5 23 0 29 -33 43 -71 32 -108 50
-113 56 -9 11 -69 39 -84 39 -8 0 -16 3 -18 8 -5 11 -64 42 -82 42 -9 0 -16 5
-16 10 0 6 -11 10 -24 10 -25 0 -44 28 -23 35 12 5 152 28 267 45 36 6 78 15
94 20 16 6 39 10 52 10 24 0 27 7 40 103 3 26 5 47 3 46 -2 0 -17 -5 -34 -10z"/>
<path d="M1775 3943 c-16 -3 -34 -9 -39 -14 -6 -5 -18 -9 -28 -9 -9 0 -28 -11
-42 -25 -14 -14 -28 -25 -31 -25 -10 0 -35 -28 -35 -39 0 -6 -4 -11 -9 -11 -5
0 -13 -10 -17 -22 -4 -13 -12 -26 -18 -30 -18 -12 -15 -250 4 -272 8 -10 15
-28 17 -39 2 -12 7 -31 12 -42 14 -33 31 -91 31 -106 0 -8 8 -26 18 -40 l17
-27 70 24 c39 13 79 28 90 33 11 5 61 21 110 36 50 15 104 33 120 40 17 7 50
18 75 25 69 18 110 41 110 59 -1 19 -34 119 -44 128 -3 3 -6 13 -6 22 0 9 -7
29 -15 45 -8 15 -15 34 -15 42 0 23 -48 124 -59 124 -6 0 -11 4 -11 10 0 17
-43 60 -59 60 -9 0 -21 8 -28 19 -20 32 -120 48 -218 34z m155 -145 c40 -22
100 -85 100 -106 0 -5 6 -14 13 -20 7 -6 14 -26 15 -44 2 -18 7 -34 12 -36 6
-2 10 -19 10 -38 0 -32 -2 -34 -33 -34 -18 0 -42 -7 -53 -15 -10 -8 -27 -15
-37 -15 -10 0 -28 -5 -40 -12 -12 -7 -26 -12 -32 -13 -26 -2 -131 -39 -136
-47 -13 -21 -43 -2 -52 32 -5 19 -12 37 -16 40 -4 3 -13 34 -20 70 -23 121 16
196 124 238 67 26 95 26 145 0z"/>
<path d="M5893 3566 c-13 -15 -43 -83 -43 -96 0 -5 56 -36 124 -70 159 -80
172 -99 141 -220 -6 -23 -1 -28 41 -48 33 -15 52 -18 59 -11 5 5 10 44 10 85
0 55 3 73 13 69 6 -3 18 -7 25 -10 14 -5 71 100 62 115 -4 6 -15 10 -25 10
-10 0 -22 5 -25 10 -3 6 -14 10 -25 10 -10 0 -20 7 -24 15 -3 8 -14 15 -25 15
-11 0 -21 4 -23 9 -1 5 -12 11 -23 13 -11 1 -26 9 -33 16 -7 6 -22 12 -33 12
-10 0 -19 4 -19 8 0 5 -28 21 -62 36 -35 15 -71 32 -80 37 -22 11 -20 11 -35
-5z"/>
<path d="M5713 3245 c-7 -8 -13 -17 -13 -20 0 -4 -7 -13 -15 -21 -8 -9 -15
-21 -15 -27 0 -10 55 -53 83 -66 5 -1 20 -14 34 -27 14 -13 33 -24 41 -24 8 0
22 -8 31 -18 21 -23 81 -65 81 -57 0 4 14 -7 31 -24 17 -17 37 -31 45 -31 8 0
14 -4 14 -10 0 -5 8 -10 18 -10 16 1 82 79 82 99 0 5 -18 20 -40 32 -22 13
-40 26 -40 31 0 4 -11 8 -25 8 -14 0 -25 5 -25 11 0 14 -41 48 -57 49 -7 0
-13 5 -13 10 0 6 -6 10 -14 10 -8 0 -16 7 -20 15 -3 8 -14 15 -25 15 -11 0
-21 3 -23 8 -1 4 -18 19 -36 35 -36 29 -79 35 -99 12z"/>
<path d="M2280 3120 c0 -5 -9 -10 -20 -10 -11 0 -23 -7 -26 -15 -4 -8 -10 -15
-15 -15 -19 0 -89 -79 -89 -99 0 -12 -4 -21 -10 -21 -6 0 -10 -33 -10 -80 0
-47 4 -80 10 -80 6 0 10 -8 10 -18 0 -44 110 -132 164 -132 9 0 16 -4 16 -10
0 -5 -6 -10 -13 -10 -11 0 -35 -19 -143 -116 l-24 -21 44 -48 c25 -26 49 -46
54 -44 8 4 65 54 231 203 36 33 80 72 96 87 99 92 141 128 148 129 16 0 5 28
-18 46 -14 10 -25 24 -25 31 0 7 -7 13 -15 13 -8 0 -15 5 -15 12 0 9 -3 9 -12
0 -18 -18 -28 -14 -28 11 0 42 -70 147 -98 147 -6 0 -12 7 -16 15 -3 8 -14 15
-25 15 -11 0 -23 5 -26 10 -3 6 -37 10 -76 10 -39 0 -69 -4 -69 -10z m142
-130 c24 -9 43 -25 55 -47 9 -18 21 -33 25 -33 14 0 9 -37 -9 -71 -20 -36 -59
-77 -91 -96 -26 -15 -92 -17 -92 -3 0 6 -5 10 -10 10 -6 0 -24 15 -40 33 -40
44 -41 108 -2 154 27 33 99 75 117 69 6 -2 27 -9 47 -16z"/>
<path d="M5518 2996 c-10 -7 -18 -18 -18 -25 0 -6 -7 -11 -15 -11 -8 0 -15 -5
-15 -10 0 -6 -11 -22 -25 -36 -33 -33 -32 -62 3 -74 15 -6 35 -14 44 -20 14
-8 19 -5 23 13 9 33 57 60 87 48 12 -5 52 -37 88 -70 35 -34 68 -61 72 -61 5
0 8 -9 8 -20 0 -11 -4 -20 -10 -20 -5 0 -10 -7 -10 -15 0 -8 -5 -15 -11 -15
-11 0 -39 -25 -39 -35 0 -10 57 -65 67 -65 5 0 25 18 43 40 18 22 36 40 40 40
3 0 24 -18 47 -40 l41 -39 46 53 45 53 -39 32 c-46 36 -48 46 -19 77 22 23 21
24 -30 67 -26 21 -27 21 -53 -3 -12 -11 -24 -20 -27 -20 -3 0 -42 34 -86 75
-44 41 -86 75 -92 75 -7 0 -13 5 -13 10 0 15 -132 12 -152 -4z"/>
<path d="M6203 2944 c-3 -8 -13 -14 -23 -14 -24 0 -35 -71 -18 -108 10 -21 21
-28 50 -30 31 -3 40 2 62 31 14 19 26 44 26 56 0 42 -84 99 -97 65z"/>
<path d="M5308 2766 c-9 -9 -26 -16 -37 -16 -39 0 -101 -36 -101 -59 0 -6 -4
-11 -9 -11 -16 0 -71 -63 -71 -81 0 -10 -4 -21 -10 -24 -19 -12 -10 -35 15
-40 14 -3 36 -7 50 -10 22 -5 28 0 40 27 33 80 127 124 199 94 37 -16 49 -46
19 -46 -22 -1 -53 -23 -53 -39 0 -6 -7 -11 -15 -11 -20 0 -52 -19 -87 -52 -16
-16 -34 -28 -41 -28 -7 0 -19 -9 -27 -20 -8 -11 -20 -20 -27 -20 -22 0 -14
-47 12 -78 57 -67 175 -100 239 -67 15 8 33 15 38 15 5 0 29 14 53 30 32 22
53 48 76 95 28 57 31 72 27 123 -8 82 -68 182 -110 182 -10 0 -18 5 -18 10 0
6 -11 10 -24 10 -13 0 -26 5 -28 11 -6 19 -92 23 -110 5z m168 -282 c-12 -88
-114 -134 -178 -81 l-27 22 96 68 c108 76 121 75 109 -9z"/>
<path d="M2740 2696 l0 -53 60 -7 c33 -4 60 -11 60 -16 0 -5 14 -17 30 -27 17
-9 30 -23 30 -30 0 -7 5 -13 10 -13 6 0 10 -22 10 -50 0 -27 -3 -50 -6 -50 -4
0 -33 18 -66 40 -33 22 -64 40 -69 40 -5 0 -9 5 -9 10 0 6 -6 10 -14 10 -8 0
-16 3 -18 8 -1 4 -25 22 -51 40 -51 34 -97 42 -97 17 0 -8 -4 -15 -10 -15 -5
0 -10 -11 -10 -24 0 -13 -7 -26 -15 -30 -11 -4 -15 -21 -15 -65 0 -40 5 -65
15 -75 8 -8 15 -21 15 -29 0 -9 19 -36 43 -61 94 -101 247 -114 346 -30 50 43
91 127 91 187 0 48 -26 127 -41 127 -5 0 -9 7 -9 14 0 8 -17 28 -37 43 -21 15
-41 32 -44 36 -11 15 -61 37 -85 37 -13 0 -24 5 -24 10 0 6 -20 10 -45 10
l-45 0 0 -54z m2 -216 c22 -16 47 -30 55 -30 7 0 13 -4 13 -10 0 -5 6 -10 14
-10 8 0 16 -7 20 -15 3 -8 15 -15 26 -15 14 0 20 -7 20 -24 0 -21 -6 -24 -53
-30 -63 -8 -82 -3 -124 37 -27 25 -33 39 -33 72 0 37 6 55 17 55 2 0 22 -13
45 -30z"/>
<path d="M4878 2533 c-37 -15 -48 -35 -28 -48 6 -3 10 -15 10 -26 0 -11 7 -22
15 -25 8 -4 15 -16 15 -28 0 -11 12 -43 25 -71 18 -36 25 -67 25 -108 0 -37
-4 -56 -10 -52 -6 3 -13 -2 -17 -12 -10 -27 -29 -43 -52 -43 -12 0 -21 -3 -21
-7 0 -22 35 -93 48 -98 18 -7 81 41 98 74 18 34 23 36 44 10 13 -14 24 -19 28
-13 4 5 26 16 50 24 23 7 42 18 42 23 0 5 -9 25 -21 43 -11 19 -18 34 -14 34
3 0 -1 12 -9 28 -20 37 -66 139 -66 147 0 6 -36 87 -62 143 -13 26 -45 28
-100 5z"/>
<path d="M3293 2451 c-3 -11 -9 -21 -14 -21 -5 0 -9 -11 -9 -25 0 -14 -6 -25
-12 -25 -13 0 -38 -44 -38 -67 0 -7 -4 -13 -9 -13 -5 0 -13 -9 -16 -20 -4 -11
-17 -32 -31 -45 -13 -13 -24 -33 -24 -45 0 -11 -4 -20 -10 -20 -5 0 -10 -6
-10 -14 0 -8 -7 -16 -15 -20 -8 -3 -15 -12 -15 -21 0 -8 -4 -15 -10 -15 -5 0
-10 -11 -10 -25 0 -14 -6 -25 -13 -25 -7 0 -20 -16 -27 -35 -8 -20 -20 -41
-27 -47 -7 -6 -13 -19 -13 -29 0 -11 -7 -19 -16 -19 -31 0 -3 -18 38 -24 90
-13 88 -14 111 29 12 22 24 42 28 45 11 10 69 111 69 119 0 5 4 11 9 13 4 2
23 30 41 63 31 56 69 113 71 104 7 -45 21 -205 28 -307 5 -93 12 -137 22 -147
8 -7 38 -18 67 -23 l54 -10 29 46 c16 25 29 51 29 58 0 7 3 14 8 16 11 5 72
103 72 116 0 7 4 12 8 12 4 0 16 15 27 33 60 103 68 113 76 92 4 -11 8 -60 9
-110 1 -81 5 -122 26 -278 4 -26 11 -50 17 -54 6 -3 36 -12 68 -18 l58 -12 -5
66 c-3 36 -10 102 -15 146 -6 44 -14 143 -19 219 -13 199 -18 223 -43 230 -12
3 -34 6 -50 6 -15 0 -36 5 -46 12 -17 10 -23 8 -40 -13 -11 -13 -20 -30 -21
-36 0 -7 -4 -13 -10 -13 -5 0 -10 -6 -10 -13 0 -8 -9 -24 -20 -37 -10 -12 -25
-35 -32 -51 -7 -16 -16 -29 -20 -29 -5 0 -8 -11 -8 -25 0 -14 -5 -25 -11 -25
-16 0 -38 -31 -39 -52 0 -10 -4 -18 -10 -18 -5 0 -12 -11 -16 -25 -3 -14 -12
-25 -19 -25 -12 0 -29 126 -41 327 -7 113 -6 111 -84 123 -25 4 -53 11 -63 15
-14 6 -20 2 -24 -14z"/>
<path d="M4322 2353 c-29 -36 -29 -83 1 -108 28 -25 99 -27 122 -4 20 20 22
66 4 105 -12 25 -21 29 -59 32 -39 3 -49 -1 -68 -25z"/>
</g>
</svg>
